# xmcd
# 
# Track frame offsets:
#     150
#     15056
#     35613
#     51591
#     61954
#     78462
#     98129
#     118888
#     128643
#     145292
#     157607
#     170640
# 
# Disc length: 2486
# 
# Revision: 1
# Processed by: cddbd v1.5.2PL0 Copyright (c) Steve Scherf et al.
# Submitted via: fre:ac v1.0.17
# 
DISCID=9809b40c
DTITLE=Cranberries The - Everybody Else Is Doing It So Why Can't We?
DYEAR=0
DGENRE=
TTITLE0=I Still Do
TTITLE1=Dreams
TTITLE2=Sunday
TTITLE3=Pretty
TTITLE4=Waltzing Back
TTITLE5=Not Sorry
TTITLE6=Linger
TTITLE7=Wanted
TTITLE8=Still Can't...
TTITLE9=I Will Always
TTITLE10=How
TTITLE11=Put Me Down
EXTD=
EXTT0=
EXTT1=
EXTT2=
EXTT3=
EXTT4=
EXTT5=
EXTT6=
EXTT7=
EXTT8=
EXTT9=
EXTT10=
EXTT11=
PLAYORDER=
